<svg xmlns="http://www.w3.org/2000/svg" width="1200" height="675" viewBox="0 0 1200 675">
  <rect width="1200" height="675" fill="#050505"/>
  <rect x="40" y="40" width="1120" height="595" rx="24" fill="#0c0c0e" stroke="#2a2a2e"/>
  <text x="70" y="95" fill="#ffffff" font-family="Arial, Helvetica, sans-serif" font-size="36" font-weight="700">PRE-TRT LAB PANEL</text>
  <text x="70" y="130" fill="#9da3af" font-family="Arial, Helvetica, sans-serif" font-size="18">Baseline first. Dose second. Guessing is not protocol.</text>
  <rect x="90" y="180" width="320" height="58" rx="10" fill="#ffffff"/>
  <rect x="90" y="252" width="320" height="58" rx="10" fill="#9ef54d"/>
  <rect x="90" y="324" width="320" height="58" rx="10" fill="#ffffff"/>
  <rect x="90" y="396" width="320" height="58" rx="10" fill="#9ef54d"/>
  <rect x="470" y="180" width="320" height="58" rx="10" fill="#ffffff"/>
  <rect x="470" y="252" width="320" height="58" rx="10" fill="#9ef54d"/>
  <rect x="470" y="324" width="320" height="58" rx="10" fill="#ffffff"/>
  <rect x="470" y="396" width="320" height="58" rx="10" fill="#9ef54d"/>
  <text x="115" y="217" fill="#000" font-family="Arial" font-size="22" font-weight="700">Total T / Free T</text>
  <text x="115" y="289" fill="#000" font-family="Arial" font-size="22" font-weight="700">LH / FSH</text>
  <text x="115" y="361" fill="#000" font-family="Arial" font-size="22" font-weight="700">SHBG / Estradiol</text>
  <text x="115" y="433" fill="#000" font-family="Arial" font-size="22" font-weight="700">CBC / Hematocrit</text>
  <text x="495" y="217" fill="#000" font-family="Arial" font-size="22" font-weight="700">PSA / CMP</text>
  <text x="495" y="289" fill="#000" font-family="Arial" font-size="22" font-weight="700">Blood pressure</text>
  <text x="495" y="361" fill="#000" font-family="Arial" font-size="22" font-weight="700">Fertility baseline</text>
  <text x="495" y="433" fill="#000" font-family="Arial" font-size="22" font-weight="700">Morning draw</text>
  <text x="860" y="255" fill="#ffffff" font-family="Arial" font-size="24">No baseline.</text>
  <text x="860" y="290" fill="#9ef54d" font-family="Arial" font-size="24">No control.</text>
  <text x="860" y="325" fill="#ffffff" font-family="Arial" font-size="24">No protocol.</text>
</svg>
