<svg xmlns="http://www.w3.org/2000/svg" width="1200" height="675" viewBox="0 0 1200 675">
  <rect width="1200" height="675" fill="#050505"/>
  <rect x="40" y="40" width="1120" height="595" rx="24" fill="#0c0c0e" stroke="#2a2a2e"/>
  <text x="70" y="95" fill="#ffffff" font-family="Arial" font-size="36" font-weight="700">INJECTION FREQUENCY STABILITY</text>
  <text x="70" y="130" fill="#9da3af" font-family="Arial" font-size="18">Weekly swings more. E3.5D less. Daily the cleanest.</text>
  <path d="M120,440 C200,200 280,200 360,440 S520,680 600,440 S760,200 840,440 S1000,680 1080,440" fill="none" stroke="#ffffff" stroke-width="5"/>
  <path d="M120,440 C200,350 280,350 360,440 S520,530 600,440 S760,350 840,440 S1000,530 1080,440" fill="none" stroke="#9ef54d" stroke-width="5"/>
  <path d="M120,440 C200,430 280,430 360,440 S520,450 600,440 S760,430 840,440 S1000,450 1080,440" fill="none" stroke="#e61e2a" stroke-width="5"/>
  <text x="170" y="190" fill="#ffffff" font-family="Arial" font-size="18">Weekly</text>
  <text x="320" y="190" fill="#9ef54d" font-family="Arial" font-size="18">E3.5D</text>
  <text x="470" y="190" fill="#e61e2a" font-family="Arial" font-size="18">Daily</text>
  <text x="740" y="240" fill="#ffffff" font-family="Arial" font-size="20">Less swing means easier control.</text>
  <text x="740" y="275" fill="#9ef54d" font-family="Arial" font-size="20">Control means better protocol.</text>
</svg>